# xmcd
#
# Track frame offsets: 
#        150
#        14590
#        27650
#        41917
#        51593
#        65494
#        85225
#        98132
#        116689
#        123661
#        139396
#        156803
#        175530
#        200962
#        216164
#        233092
#        245297
#        256933
#        265796
#
# Disc length: 3770 seconds
#
# Revision: 0
# Processed by: cddbd v1.5.2PL0 Copyright (c) Steve Scherf et al.
# Submitted via: ExactAudioCopy v0.99pb1
#
DISCID=1f0eb813
DTITLE=Cecil Barfield - The George Mitchell Collection
DYEAR=2006
DGENRE=Blues
TTITLE0=Love Blues
TTITLE1=Sun Goin' Down
TTITLE2=Tell Me Rider
TTITLE3=See What You Made Me Do
TTITLE4=My Babe
TTITLE5=Left My Baby Crying
TTITLE6=Captain Had A Bulldog
TTITLE7=Lonesome House Blues
TTITLE8=I Woke Up Crying
TTITLE9=Lucy Mae Blues
TTITLE10=Big Legged Woman
TTITLE11=Five Long Years
TTITLE12=William Robertson Blues
TTITLE13=Talk To Your Daughter
TTITLE14=Root Blues
TTITLE15=Hooks In The Water
TTITLE16=I Told You Not To Do That
TTITLE17=Bottle Up And Go
TTITLE18=I Want Your Little Lovin'
EXTD=
EXTT0=
EXTT1=
EXTT2=
EXTT3=
EXTT4=
EXTT5=
EXTT6=
EXTT7=
EXTT8=
EXTT9=
EXTT10=
EXTT11=
EXTT12=
EXTT13=
EXTT14=
EXTT15=
EXTT16=
EXTT17=
EXTT18=
PLAYORDER=
